<?xml version="1.0" standalone="no"?>
<!DOCTYPE svg PUBLIC "-//W3C//DTD SVG 20010904//EN"
 "http://www.w3.org/TR/2001/REC-SVG-20010904/DTD/svg10.dtd">
<svg version="1.0" xmlns="http://www.w3.org/2000/svg"
 width="286.000000pt" height="286.000000pt" viewBox="0 0 286.000000 286.000000"
 preserveAspectRatio="xMidYMid meet">
<metadata>
Created by potrace 1.16, written by Peter Selinger 2001-2019
</metadata>
<g transform="translate(0.000000,286.000000) scale(0.100000,-0.100000)"
fill="#000000" stroke="none">
<path d="M2700 1327 c-125 -13 -306 -14 -760 -4 -364 8 -413 6 -615 -22 -33
-5 -141 -18 -240 -31 -99 -12 -214 -31 -255 -42 -41 -11 -93 -23 -115 -27 -23
-4 -47 -11 -54 -15 -25 -16 -116 -31 -151 -26 -19 3 -84 1 -145 -3 -66 -5
-156 -4 -224 2 -63 6 -116 9 -118 7 -2 -2 -6 -257 -10 -568 l-6 -565 604 -7
c332 -3 967 -9 1412 -12 l807 -7 0 419 c0 230 3 530 7 667 l6 247 -24 -1 c-13
-1 -67 -6 -119 -12z"/>
</g>
</svg>
